<svg width="32" height="33" viewBox="0 0 32 33" fill="none" xmlns="http://www.w3.org/2000/svg">
<path d="M29.7143 19.0857H18.2857V30.5143C18.2857 31.1205 18.0449 31.7019 17.6162 32.1305C17.1876 32.5592 16.6062 32.8 16 32.8C15.3938 32.8 14.8124 32.5592 14.3838 32.1305C13.9551 31.7019 13.7143 31.1205 13.7143 30.5143V19.0857H2.28571C1.67951 19.0857 1.09813 18.8449 0.669471 18.4162C0.240816 17.9876 0 17.4062 0 16.8C0 16.1938 0.240816 15.6124 0.669471 15.1837C1.09813 14.7551 1.67951 14.5143 2.28571 14.5143H13.7143V3.0857C13.7143 2.47949 13.9551 1.89811 14.3838 1.46946C14.8124 1.0408 15.3938 0.799988 16 0.799988C16.6062 0.799988 17.1876 1.0408 17.6162 1.46946C18.0449 1.89811 18.2857 2.47949 18.2857 3.0857V14.5143H29.7143C30.3205 14.5143 30.9019 14.7551 31.3305 15.1837C31.7592 15.6124 32 16.1938 32 16.8C32 17.4062 31.7592 17.9876 31.3305 18.4162C30.9019 18.8449 30.3205 19.0857 29.7143 19.0857Z" fill="white"/>
</svg>
