<svg width="82" height="41" viewBox="0 0 82 41" fill="none" xmlns="http://www.w3.org/2000/svg">
<rect y="12" width="72" height="29" rx="14.5" fill="#EC3237" fill-opacity="0.2"/>
<path d="M17.799 30V22.7273H22.3587V23.6719H18.8963V25.8878H22.1207V26.8288H18.8963V29.0554H22.4013V30H17.799ZM23.8244 30V22.7273H26.4167C26.9825 22.7273 27.4513 22.8303 27.823 23.0362C28.1947 23.2422 28.4728 23.5239 28.6575 23.8814C28.8422 24.2365 28.9345 24.6366 28.9345 25.0817C28.9345 25.5291 28.841 25.9316 28.6539 26.2891C28.4693 26.6442 28.1899 26.9259 27.8159 27.1342C27.4442 27.3402 26.9766 27.4432 26.4132 27.4432H24.6305V26.5128H26.3137C26.6712 26.5128 26.9612 26.4512 27.1838 26.3281C27.4063 26.2027 27.5697 26.0322 27.6738 25.8168C27.778 25.6013 27.8301 25.3563 27.8301 25.0817C27.8301 24.8071 27.778 24.5632 27.6738 24.3501C27.5697 24.1371 27.4051 23.9702 27.1802 23.8494C26.9577 23.7287 26.6641 23.6683 26.2995 23.6683H24.9217V30H23.8244ZM34.1875 24.6378C34.1496 24.3016 33.9934 24.0412 33.7188 23.8565C33.4441 23.6695 33.0985 23.576 32.6818 23.576C32.3835 23.576 32.1255 23.6233 31.9077 23.718C31.6899 23.8104 31.5206 23.9382 31.3999 24.1016C31.2815 24.2625 31.2223 24.446 31.2223 24.652C31.2223 24.8248 31.2625 24.974 31.343 25.0994C31.4259 25.2249 31.5336 25.3303 31.6662 25.4155C31.8011 25.4983 31.9455 25.5682 32.0994 25.625C32.2533 25.6795 32.4013 25.7244 32.5433 25.7599L33.2536 25.9446C33.4856 26.0014 33.7235 26.0784 33.9673 26.1754C34.2112 26.2725 34.4373 26.4003 34.6456 26.5589C34.8539 26.7176 35.022 26.9141 35.1499 27.1484C35.2801 27.3828 35.3452 27.6634 35.3452 27.9901C35.3452 28.402 35.2386 28.7678 35.0256 29.0874C34.8149 29.407 34.5083 29.6591 34.1058 29.8438C33.7057 30.0284 33.2216 30.1207 32.6534 30.1207C32.1089 30.1207 31.6378 30.0343 31.2401 29.8615C30.8423 29.6887 30.531 29.4437 30.3061 29.1264C30.0812 28.8068 29.9569 28.428 29.9332 27.9901H31.0341C31.0554 28.2528 31.1406 28.4718 31.2898 28.647C31.4413 28.8198 31.6342 28.9489 31.8686 29.0341C32.1054 29.117 32.3646 29.1584 32.6463 29.1584C32.9564 29.1584 33.2322 29.1098 33.4737 29.0128C33.7176 28.9134 33.9093 28.776 34.049 28.6009C34.1887 28.4233 34.2585 28.2161 34.2585 27.9794C34.2585 27.764 34.197 27.5876 34.0739 27.4503C33.9531 27.313 33.7886 27.1993 33.5803 27.1094C33.3743 27.0194 33.1411 26.9401 32.8807 26.8714L32.0213 26.6371C31.4389 26.4785 30.9773 26.2453 30.6364 25.9375C30.2978 25.6297 30.1286 25.2225 30.1286 24.7159C30.1286 24.2969 30.2422 23.9311 30.4695 23.6186C30.6967 23.3061 31.0045 23.0634 31.3928 22.8906C31.781 22.7154 32.219 22.6278 32.7067 22.6278C33.1991 22.6278 33.6335 22.7143 34.0099 22.8871C34.3887 23.0599 34.687 23.2978 34.9048 23.6009C35.1226 23.9015 35.2363 24.2472 35.2457 24.6378H34.1875ZM41.7354 30.0994C41.2478 30.0994 40.8121 30.0154 40.4286 29.8473C40.0475 29.6792 39.7456 29.446 39.5231 29.1477C39.3029 28.8471 39.1845 28.4991 39.168 28.1037H40.283C40.2972 28.3191 40.3694 28.5062 40.4996 28.6648C40.6322 28.821 40.805 28.9418 41.0181 29.027C41.2312 29.1122 41.4679 29.1548 41.7283 29.1548C42.0148 29.1548 42.2681 29.1051 42.4883 29.0057C42.7108 28.9062 42.8848 28.7678 43.0103 28.5902C43.1358 28.4103 43.1985 28.2031 43.1985 27.9688C43.1985 27.7249 43.1358 27.5107 43.0103 27.326C42.8872 27.139 42.7061 26.9922 42.467 26.8857C42.2302 26.7791 41.9438 26.7259 41.6076 26.7259H40.9933V25.831H41.6076C41.8775 25.831 42.1142 25.7824 42.3178 25.6854C42.5238 25.5883 42.6848 25.4534 42.8008 25.2805C42.9168 25.1054 42.9748 24.9006 42.9748 24.6662C42.9748 24.4413 42.9239 24.246 42.8221 24.0803C42.7227 23.9122 42.5806 23.7808 42.396 23.6861C42.2137 23.5914 41.9982 23.544 41.7496 23.544C41.5129 23.544 41.2915 23.5878 41.0856 23.6754C40.882 23.7607 40.7163 23.8838 40.5884 24.0447C40.4606 24.2034 40.3919 24.3939 40.3825 24.6165H39.3207C39.3325 24.2235 39.4485 23.8778 39.6687 23.5795C39.8912 23.2812 40.1848 23.0481 40.5494 22.88C40.9139 22.7119 41.3188 22.6278 41.7638 22.6278C42.2302 22.6278 42.6327 22.719 42.9712 22.9013C43.3121 23.0812 43.5749 23.3215 43.7596 23.6222C43.9466 23.9228 44.0389 24.2519 44.0366 24.6094C44.0389 25.0166 43.9253 25.3622 43.6957 25.6463C43.4684 25.9304 43.1654 26.121 42.7866 26.218V26.2749C43.2695 26.3482 43.6436 26.54 43.9087 26.8501C44.1763 27.1603 44.3088 27.545 44.3065 28.0043C44.3088 28.4044 44.1976 28.763 43.9727 29.0803C43.7501 29.3975 43.4459 29.6473 43.06 29.8295C42.6741 30.0095 42.2326 30.0994 41.7354 30.0994ZM48.408 22.7273V30H47.3072V23.8281H47.2646L45.5245 24.9645V23.9134L47.3391 22.7273H48.408ZM50.3754 30V29.2045L52.8363 26.6548C53.0991 26.3778 53.3157 26.1352 53.4862 25.9268C53.659 25.7161 53.788 25.5161 53.8732 25.3267C53.9585 25.1373 54.0011 24.9361 54.0011 24.723C54.0011 24.4815 53.9442 24.2732 53.8306 24.098C53.717 23.9205 53.5619 23.7843 53.3654 23.6896C53.1689 23.5926 52.9476 23.544 52.7013 23.544C52.4409 23.544 52.2137 23.5973 52.0195 23.7038C51.8254 23.8104 51.6763 23.9607 51.5721 24.1548C51.4679 24.349 51.4158 24.5762 51.4158 24.8366H50.3683C50.3683 24.3939 50.4701 24.0069 50.6737 23.6754C50.8772 23.344 51.1566 23.0871 51.5117 22.9048C51.8668 22.7202 52.2705 22.6278 52.7227 22.6278C53.1796 22.6278 53.582 22.719 53.93 22.9013C54.2804 23.0812 54.5539 23.3274 54.7504 23.6399C54.9469 23.95 55.0451 24.3004 55.0451 24.6911C55.0451 24.9609 54.9942 25.2249 54.8924 25.483C54.793 25.741 54.619 26.0286 54.3704 26.3459C54.1218 26.6607 53.7762 27.0431 53.3335 27.4929L51.8881 29.0057V29.0589H55.1623V30H50.3754Z" fill="#EC3237"/>
<path d="M66.6069 5.37058C65.4029 5.85959 65.4949 7.59463 66.7439 7.95364L73.0488 9.76668L75.9288 15.6618C76.4998 16.8298 78.2248 16.6188 78.4978 15.3478L81.4328 1.65749C81.4852 1.41415 81.4703 1.16112 81.3897 0.925607C81.3091 0.690098 81.1658 0.481029 80.9752 0.320892C80.7846 0.160754 80.554 0.0556091 80.3081 0.0167684C80.0622 -0.0220723 79.8104 0.00686097 79.5798 0.100456L66.6069 5.37058Z" fill="#EC3237"/>
</svg>
