<svg width="81" height="41" viewBox="0 0 81 41" fill="none" xmlns="http://www.w3.org/2000/svg">
<rect x="9" y="12" width="72" height="29" rx="14.5" fill="#3DB165" fill-opacity="0.2"/>
<path d="M23.799 22.7273H25.1307L27.446 28.3807H27.5312L29.8466 22.7273H31.1783V30H30.1342V24.7372H30.0668L27.9219 29.9893H27.0554L24.9105 24.7337H24.843V30H23.799V22.7273ZM32.415 23.6719V22.7273H38.0435V23.6719H35.7743V30H34.6806V23.6719H32.415ZM39.2873 30V22.7273H40.3846V25.8878H44.0103V22.7273H45.1112V30H44.0103V26.8288H40.3846V30H39.2873ZM49.1035 28.5795V27.6918L52.2463 22.7273H52.9458V24.0341H52.502L50.2541 27.5923V27.6491H54.5616V28.5795H49.1035ZM52.5517 30V28.3097L52.5588 27.9048V22.7273H53.5993V30H52.5517ZM58.4608 22.7273V30H57.3599V23.8281H57.3173L55.5772 24.9645V23.9134L57.3919 22.7273H58.4608ZM60.4281 30V29.2045L62.889 26.6548C63.1518 26.3778 63.3684 26.1352 63.5389 25.9268C63.7117 25.7161 63.8407 25.5161 63.926 25.3267C64.0112 25.1373 64.0538 24.9361 64.0538 24.723C64.0538 24.4815 63.997 24.2732 63.8833 24.098C63.7697 23.9205 63.6146 23.7843 63.4181 23.6896C63.2217 23.5926 63.0003 23.544 62.7541 23.544C62.4937 23.544 62.2664 23.5973 62.0723 23.7038C61.8781 23.8104 61.729 23.9607 61.6248 24.1548C61.5207 24.349 61.4686 24.5762 61.4686 24.8366H60.421C60.421 24.3939 60.5228 24.0069 60.7264 23.6754C60.93 23.344 61.2093 23.0871 61.5645 22.9048C61.9196 22.7202 62.3232 22.6278 62.7754 22.6278C63.2323 22.6278 63.6348 22.719 63.9828 22.9013C64.3332 23.0812 64.6066 23.3274 64.8031 23.6399C64.9996 23.95 65.0978 24.3004 65.0978 24.6911C65.0978 24.9609 65.0469 25.2249 64.9451 25.483C64.8457 25.741 64.6717 26.0286 64.4231 26.3459C64.1745 26.6607 63.8289 27.0431 63.3862 27.4929L61.9409 29.0057V29.0589H65.215V30H60.4281Z" fill="#3DB165"/>
<path d="M14.8567 5.37045C16.0607 5.85945 15.9687 7.59445 14.7197 7.95345L8.41473 9.76645L5.53473 15.6615C4.96373 16.8295 3.23873 16.6185 2.96573 15.3475L0.0307343 1.65745C-0.0217146 1.41412 -0.00682567 1.16109 0.0737994 0.925586C0.154424 0.690082 0.297734 0.481018 0.488311 0.320884C0.678888 0.16075 0.909519 0.0556078 1.15539 0.016768C1.40127 -0.0220718 1.65308 0.00686081 1.88373 0.100454L14.8567 5.37045Z" fill="#3DB165"/>
</svg>
